<svg aria-hidden="true" style="position: absolute; width: 0; height: 0; overflow: hidden;" version="1.1" xmlns="http://www.w3.org/2000/svg" xmlns:xlink="http://www.w3.org/1999/xlink">
<defs>
<symbol id="icon-github" viewBox="0 0 20 20">
<path d="M10 0.247c-5.525 0-10 4.478-10 10 0 4.419 2.865 8.167 6.837 9.487 0.5 0.094 0.683-0.215 0.683-0.481 0-0.237-0.008-0.867-0.012-1.7-2.782 0.603-3.368-1.342-3.368-1.342-0.455-1.154-1.113-1.463-1.113-1.463-0.906-0.62 0.070-0.607 0.070-0.607 1.004 0.070 1.532 1.030 1.532 1.030 0.892 1.529 2.341 1.087 2.913 0.832 0.090-0.647 0.348-1.088 0.633-1.338-2.221-0.25-4.555-1.11-4.555-4.942 0-1.092 0.388-1.983 1.029-2.683-0.112-0.252-0.45-1.269 0.087-2.647 0 0 0.838-0.268 2.75 1.025 0.8-0.222 1.65-0.332 2.5-0.338 0.85 0.005 1.7 0.115 2.5 0.337 1.9-1.293 2.737-1.025 2.737-1.025 0.537 1.377 0.2 2.394 0.1 2.647 0.638 0.7 1.025 1.592 1.025 2.683 0 3.842-2.338 4.688-4.563 4.933 0.35 0.3 0.675 0.913 0.675 1.85 0 1.338-0.013 2.413-0.013 2.738 0 0.262 0.175 0.575 0.688 0.475 4.001-1.312 6.863-5.062 6.863-9.474 0-5.522-4.478-10-10-10z"></path>
</symbol>
<symbol id="icon-linkedin" viewBox="0 0 20 20">
<path d="M5 3c0 1.062-0.71 1.976-2.001 1.976-1.215 0-1.999-0.862-1.999-1.924 0-1.090 0.76-2.052 2-2.052s1.976 0.91 2 2zM1 19v-13h4v13h-4z"></path>
<path d="M7 10.444c0-1.545-0.051-2.836-0.102-3.951h3.594l0.178 1.723h0.076c0.506-0.811 1.746-2 3.822-2 2.532 0 4.432 1.695 4.432 5.342v7.442h-4v-6.861c0-1.594-0.607-2.81-2-2.81-1.062 0-1.594 0.86-1.873 1.569-0.102 0.254-0.127 0.608-0.127 0.963v7.139h-4v-8.556z"></path>
</symbol>
<symbol id="icon-ukraine" viewBox="0 0 32 32">
<path fill="#2a75e6" style="fill: var(--color1, #2a75e6)" d="M23.342 3c-0.003 0-0.006 0-0.009 0-3.204 0-5.976 1.846-7.312 4.532l-0.021 0.047c-1.357-2.733-4.13-4.579-7.333-4.579-0.003 0-0.006 0-0.010 0h0.001c-4.505 0-8.158 3.638-8.158 8.125 0 10.563 15.5 17.875 15.5 17.875s15.5-7.313 15.5-17.875c0-4.487-3.652-8.125-8.158-8.125z"></path>
<path fill="#f9d549" style="fill: var(--color2, #f9d549)" d="M1.595 16c3.534 7.871 14.405 13 14.405 13s10.871-5.129 14.405-13z"></path>
</symbol>
<symbol id="icon-flag_ukraine" viewBox="0 0 32 32">
<path fill="#e6e6e6" style="fill: var(--color1, #000000)" d="M5.5 2.5c-0-1.104-0.896-2-2-2s-2 0.895-2 2c0 0.736 0.398 1.38 0.991 1.727l0.009 0.005v27.268h2v-27.268c0.602-0.352 1-0.995 1-1.732 0-0 0-0.001 0-0.001v0z"></path>
<path fill="#2a75e6" style="fill: var(--color2, #2a75e6)" d="M30.5 23.381c-8.667-2.814-17.333 3.159-26 0.345v-19.5c8.667 2.814 17.333-3.159 26-0.345z"></path>
<path fill="#f9d549" style="fill: var(--color3, #f9d549)" d="M4.5 13.725v10c8.667 2.814 17.333-3.159 26-0.345v-10c-8.667-2.814-17.333 3.159-26 0.345z"></path>
</symbol>
</defs>
</svg>
