<svg aria-hidden="true" style="position: absolute; width: 0; height: 0; overflow: hidden;" version="1.1" xmlns="http://www.w3.org/2000/svg" xmlns:xlink="http://www.w3.org/1999/xlink">
<defs>
<symbol id="icon-flag-ukraine" viewBox="0 0 32 32">
<path fill="#2a75e6" style="fill: var(--color1, #2a75e6)" d="M1.125 5h29.75c0.345 0 0.625 0.28 0.625 0.625v20.75c0 0.345-0.28 0.625-0.625 0.625h-29.75c-0.345 0-0.625-0.28-0.625-0.625v-20.75c0-0.345 0.28-0.625 0.625-0.625z"></path>
<path fill="#f9d549" style="fill: var(--color2, #f9d549)" d="M0.5 16h31v10.375c0 0.345-0.28 0.625-0.625 0.625v0h-29.75c-0.345 0-0.625-0.28-0.625-0.625v0-10.375z"></path>
</symbol>
<symbol id="icon-flag-england" viewBox="0 0 32 32">
<path fill="#00247d" style="fill: var(--color3, #00247d)" d="M2.697 0.905c-0.95 0-1.714 0.765-1.714 1.714v26.711c0 0.95 0.765 1.714 1.714 1.714h26.711c0.95 0 1.714-0.765 1.714-1.714v-26.711c0-0.95-0.765-1.714-1.714-1.714h-26.711z"></path>
<path fill="#cf142b" style="fill: var(--color4, #cf142b)" d="M0.982 5.962v2.624l12.798 7.389-12.798 7.389v2.624l15.070-8.701 15.070 8.701v-2.624l-12.798-7.389 12.798-7.389v-2.624l-15.070 8.701-15.070-8.701z"></path>
<path fill="#cf142b" style="fill: var(--color4, #cf142b)" d="M13.46 0.905v12.478h-12.478v5.183h12.478v12.478h5.183v-12.478h12.478v-5.183h-12.478v-12.478h-5.183z"></path>
<path fill="#fff" style="fill: var(--color5, #fff)" d="M12.956 0.905v11.389l-11.974-6.913v1.164l10.972 6.335h-2.528l-8.444-4.875v1.164l6.428 3.711h-6.428v1.008h11.238c0.686 0 1.106-0.029 1.744-0.029v-12.953zM18.14 0.905v12.986c0.615 0 1.189-0.004 1.744-0.004h11.238v-1.008h-6.428l6.428-3.711v-1.164l-8.444 4.875h-2.528l10.972-6.335v-1.164l-11.974 6.913v-11.389zM13.964 18.074c-0.581 0-1.189-0.012-1.744-0.012h-11.238v1.008h6.428l-6.428 3.711v1.164l8.444-4.875h2.528l-10.972 6.335v1.164l11.974-6.913v11.389h1.008v-11.971zM18.14 18.074v12.97h1.008v-11.389l11.974 6.913v-1.164l-10.972-6.335h2.528l8.444 4.875v-1.164l-6.428-3.711h6.428v-1.008h-11.238c-0.637 0-1.744 0.012-1.744 0.012z"></path>
</symbol>
</defs>
</svg>
