<svg xmlns="http://www.w3.org/2000/svg" xmlns:xlink="http://www.w3.org/1999/xlink" aria-hidden="true" style="position: absolute; width: 0; height: 0; overflow: hidden;" version="1.1">
<defs>
<symbol id="icon-svg-heart" viewBox="0 0 34 32">
<path fill="#ff6b08" style="fill: var(--color1, #ff6b08)" d="M17.231 31.705l-2.412-2.412c-8.96-7.926-14.818-13.268-14.818-19.815 0-5.342 4.135-9.477 9.477-9.477 2.929 0 5.858 1.378 7.754 3.618 1.895-2.24 4.825-3.618 7.754-3.618 5.342 0 9.477 4.135 9.477 9.477 0 6.548-5.858 11.889-14.818 19.815l-2.412 2.412z"/>
</symbol>
<symbol id="icon-close" viewBox="0 0 32 32">
    <path d="M32 3.223l-3.223-3.223-12.777 12.777-12.777-12.777-3.223 3.223 12.777 12.777-12.777 12.777 3.223 3.223 12.777-12.777 12.777 12.777 3.223-3.223-12.777-12.777 12.777-12.777z"></path>
</symbol>
<symbol id="youTube-icon" viewBox="0 0 48 32">
    <path fill="#f00" style="fill: var(--color1, #f00)" d="M41.69 7.055c-0.425-1.599-1.676-2.858-3.265-3.285-2.879-0.777-14.425-0.777-14.425-0.777s-11.546 0-14.425 0.777c-1.589 0.427-2.84 1.687-3.265 3.285-0.771 2.898-0.771 8.945-0.771 8.945s0 6.047 0.771 8.945c0.424 1.599 1.676 2.858 3.264 3.286 2.879 0.776 14.425 0.776 14.425 0.776s11.546 0 14.425-0.776c1.589-0.428 2.84-1.687 3.265-3.286 0.772-2.898 0.772-8.945 0.772-8.945s0-6.047-0.772-8.945z"></path>
    <path fill="#fff" style="fill: var(--color2, #fff)" d="M20.224 21.49l9.65-5.49-9.65-5.49z"></path>
</symbol>
</defs>
</svg>